<svg xmlns="http://www.w3.org/2000/svg" width="28" height="27" viewBox="0 0 28 27">
  <g id="Group_68644" data-name="Group 68644" transform="translate(0.177 0.148)">
    <ellipse id="Ellipse_129" data-name="Ellipse 129" cx="14" cy="13.5" rx="14" ry="13.5" transform="translate(-0.177 -0.148)" fill="#fff"/>
    <path id="Path_65527" data-name="Path 65527" d="M12.329,7.138v4.506H9.686v-4.2c0-1.056-.381-1.777-1.339-1.777a1.445,1.445,0,0,0-1.355.956,1.749,1.749,0,0,0-.087.636v4.388H4.26s.036-7.12,0-7.857H6.9V4.9c0,.009-.013.017-.017.026H6.9V4.9A2.63,2.63,0,0,1,9.287,3.6c1.739,0,3.042,1.123,3.042,3.536ZM1.5,0a1.362,1.362,0,1,0-.035,2.715h.016A1.363,1.363,0,1,0,1.5,0ZM.157,11.644H2.8V3.787H.157Zm0,0" transform="translate(7.371 7.587)"/>
  </g>
</svg>
