<svg xmlns="http://www.w3.org/2000/svg" width="12.733" height="12.096" viewBox="0 0 12.733 12.096">
  <g id="Star" transform="translate(0)">
    <path id="Star-2" data-name="Star" d="M10.134,7.525a.7.7,0,0,0-.2.617l.566,3.132a.688.688,0,0,1-.286.688.7.7,0,0,1-.745.051L6.646,10.542a.72.72,0,0,0-.318-.083H6.155a.517.517,0,0,0-.172.057l-2.82,1.478a.744.744,0,0,1-.452.07.708.708,0,0,1-.567-.809l.567-3.132a.712.712,0,0,0-.2-.623L.209,5.271a.687.687,0,0,1-.171-.719A.715.715,0,0,1,.6,4.074l3.164-.459a.708.708,0,0,0,.56-.388L5.722.369A.663.663,0,0,1,5.85.2L5.907.153a.427.427,0,0,1,.1-.083L6.079.045,6.187,0h.268a.712.712,0,0,1,.56.382L8.428,3.228a.707.707,0,0,0,.528.388l3.164.459a.722.722,0,0,1,.579.477.692.692,0,0,1-.185.719Z" transform="translate(0 0)" fill="#f5ba0c"/>
  </g>
</svg>
