<svg xmlns="http://www.w3.org/2000/svg" width="27" height="27" viewBox="0 0 27 27">
  <g id="Group_68645" data-name="Group 68645" transform="translate(0.399 0.148)">
    <circle id="Ellipse_130" data-name="Ellipse 130" cx="13.5" cy="13.5" r="13.5" transform="translate(-0.399 -0.148)" fill="#fff"/>
    <path id="Path_65526" data-name="Path 65526" d="M13.7,1.3a5.686,5.686,0,0,1-1.614.435A2.79,2.79,0,0,0,13.321.2a5.7,5.7,0,0,1-1.785.671A2.828,2.828,0,0,0,9.484,0a2.789,2.789,0,0,0-2.81,2.766,2.724,2.724,0,0,0,.073.631A8.021,8.021,0,0,1,.954.506,2.717,2.717,0,0,0,.573,1.9a2.755,2.755,0,0,0,1.25,2.3A2.829,2.829,0,0,1,.55,3.853v.035A2.78,2.78,0,0,0,2.8,6.6a2.851,2.851,0,0,1-1.269.048A2.809,2.809,0,0,0,4.161,8.57,5.694,5.694,0,0,1,.67,9.754,5.681,5.681,0,0,1,0,9.716a8.045,8.045,0,0,0,4.308,1.243A8.009,8.009,0,0,0,9.355,9.242a7.972,7.972,0,0,0,2.95-6.155c0-.12,0-.239-.008-.358A5.657,5.657,0,0,0,13.7,1.3Zm0,0" transform="translate(6.318 8.114)"/>
  </g>
</svg>
